<svg width="20" height="20" viewBox="0 0 20 20" fill="none" xmlns="http://www.w3.org/2000/svg">
<path d="M18 9.5C18 9.69698 17.9612 9.89204 17.8858 10.074C17.8104 10.256 17.6999 10.4214 17.5607 10.5607C17.4214 10.6999 17.256 10.8104 17.074 10.8858C16.892 10.9612 16.697 11 16.5 11C16.303 11 16.108 10.9612 15.926 10.8858C15.744 10.8104 15.5786 10.6999 15.4393 10.5607C15.3001 10.4214 15.1896 10.256 15.1142 10.074C15.0388 9.89204 15 9.69698 15 9.5L15 3.5C15 3.10218 15.158 2.72064 15.4393 2.43934C15.7206 2.15804 16.1022 2 16.5 2C16.8978 2 17.2794 2.15804 17.5607 2.43934C17.842 2.72064 18 3.10218 18 3.5V9.5ZM14 9.667L14 4.237C14.0002 3.86534 13.8968 3.50098 13.7014 3.1848C13.5061 2.86862 13.2265 2.61313 12.894 2.447L12.844 2.422C12.2891 2.14467 11.6773 2.0002 11.057 2H5.641C5.17847 1.99982 4.73018 2.15995 4.37245 2.45314C4.01471 2.74633 3.76966 3.15444 3.679 3.608L2.479 9.608C2.42101 9.89813 2.42811 10.1975 2.4998 10.4846C2.57148 10.7716 2.70595 11.0392 2.89353 11.268C3.08111 11.4968 3.31712 11.6811 3.58454 11.8077C3.85196 11.9343 4.14413 12 4.44 12L8 12V16C8 16.5304 8.21071 17.0391 8.58579 17.4142C8.96086 17.7893 9.46957 18 10 18C10.2652 18 10.5196 17.8946 10.7071 17.7071C10.8946 17.5196 11 17.2652 11 17V16.333C11 15.4675 11.2807 14.6254 11.8 13.933L13.2 12.067C13.7193 11.3746 14 10.5325 14 9.667Z" fill="#DC4545"/>
</svg>
