<svg width="20" height="20" viewBox="0 0 20 20" fill="none" xmlns="http://www.w3.org/2000/svg">
<path fill-rule="evenodd" clip-rule="evenodd" d="M2 10C2 12.1217 2.84285 14.1566 4.34315 15.6569C5.84344 17.1571 7.87827 18 10 18C12.1217 18 14.1566 17.1571 15.6569 15.6569C17.1571 14.1566 18 12.1217 18 10C18 7.87827 17.1571 5.84344 15.6569 4.34315C14.1566 2.84285 12.1217 2 10 2C7.87827 2 5.84344 2.84285 4.34315 4.34315C2.84285 5.84344 2 7.87827 2 10ZM10.707 13.707L13.707 10.707C13.8892 10.5184 13.99 10.2658 13.9877 10.0036C13.9854 9.7414 13.8802 9.49059 13.6948 9.30518C13.5094 9.11977 13.2586 9.0146 12.9964 9.01233C12.7342 9.01005 12.4816 9.11084 12.293 9.293L11 10.586V7C11 6.73478 10.8946 6.48043 10.7071 6.29289C10.5196 6.10536 10.2652 6 10 6C9.73478 6 9.48043 6.10536 9.29289 6.29289C9.10536 6.48043 9 6.73478 9 7V10.586L7.707 9.293C7.61475 9.19749 7.50441 9.12131 7.3824 9.0689C7.2604 9.01649 7.12918 8.9889 6.9964 8.98775C6.86362 8.9866 6.73194 9.0119 6.60905 9.06218C6.48615 9.11246 6.3745 9.18671 6.28061 9.28061C6.18671 9.3745 6.11246 9.48615 6.06218 9.60905C6.0119 9.73194 5.9866 9.86362 5.98775 9.9964C5.9889 10.1292 6.01649 10.2604 6.0689 10.3824C6.12131 10.5044 6.19749 10.6148 6.293 10.707L9.293 13.707C9.48053 13.8945 9.73484 13.9998 10 13.9998C10.2652 13.9998 10.5195 13.8945 10.707 13.707Z" fill="#B9B8B8"/>
</svg>